USFL
nRows=247
nColumns=2
inDegrees=yes
endheader
time	tib_ant_r	
3.29335	 72.493613	
3.32661	 72.479512	
3.35988	 72.483000	
3.39315	 72.484613	
3.42641	 72.477172	
3.45968	 72.467422	
3.49294	 72.477584	
3.52621	 72.485040	
3.55948	 72.485251	
3.59274	 72.479363	
3.62601	 72.467133	
3.65927	 72.462341	
3.69254	 72.480568	
3.72581	 72.484989	
3.75907	 72.490967	
3.79234	 72.484208	
3.8256	 72.439266	
3.85887	 72.550313	
3.89214	 72.583294	
3.9254	 72.583767	
3.95867	 72.584758	
3.99194	 72.565428	
4.0252	 72.581962	
4.05847	 72.550386	
4.09173	 72.521845	
4.125	 72.527861	
4.15827	 72.534973	
4.19153	 72.531180	
4.2248	 72.526374	
4.25806	 72.532880	
4.29133	 72.543008	
4.3246	 72.541739	
4.35786	 72.567304	
4.39113	 72.569428	
4.4244	 72.580002	
4.45766	 72.582971	
4.49093	 72.582369	
4.52419	 72.588663	
4.55746	 72.590521	
4.59073	 72.607272	
4.62399	 72.608869	
4.65726	 72.599614	
4.69052	 72.594315	
4.72379	 72.618305	
4.75706	 72.614052	
4.79032	 72.613835	
4.82359	 72.650397	
4.85685	 72.651145	
4.89012	 72.664134	
4.92339	 72.668783	
4.95665	 72.688281	
4.98992	 72.674564	
5.02319	 72.663784	
5.05645	 72.661640	
5.08972	 72.658855	
5.12298	 72.660338	
5.15625	 72.695939	
5.18952	 72.717006	
5.22278	 72.711093	
5.25605	 72.658771	
5.28931	 72.714429	
5.32258	 72.709587	
5.35585	 72.715324	
5.38911	 72.685326	
5.42238	 72.700577	
5.45565	 72.596953	
5.48891	 72.775583	
5.52218	 71.930834	
5.55544	 72.670822	
5.58871	 73.170914	
5.62198	 73.020439	
5.65524	 67.512093	
5.68851	 66.910479	
5.72177	 66.709588	
5.75504	 66.918901	
5.78831	 66.888568	
5.82157	 66.006648	
5.85484	 65.888924	
5.8881	 65.528367	
5.92137	 65.054789	
5.95464	 64.552630	
5.9879	 61.595827	
6.02117	 61.465215	
6.05444	 61.374044	
6.0877	 61.318206	
6.12097	 61.272197	
6.15423	 61.318191	
6.1875	 61.488536	
6.22077	 61.486115	
6.25403	 61.531159	
6.2873	 61.549709	
6.32056	 53.985065	
6.35383	 54.013785	
6.3871	 54.040926	
6.42036	 54.052960	
6.45363	 54.087042	
6.4869	 54.124086	
6.52016	 54.199554	
6.55343	 54.152650	
6.58669	 54.193585	
6.61996	 54.264873	
6.65323	 54.237117	
6.68649	 54.165293	
6.71976	 54.257656	
6.75302	 54.284658	
6.78629	 54.210178	
6.81956	 54.221699	
6.85282	 54.276290	
6.88609	 54.203743	
6.91935	 54.245932	
6.95262	 54.228998	
6.98589	 54.250249	
7.01915	 54.228071	
7.05242	 54.241922	
7.08569	 54.180390	
7.11895	 54.175660	
7.15222	 54.191993	
7.18548	 54.189804	
7.21875	 54.193413	
7.25202	 54.245554	
7.28528	 54.215104	
7.31855	 54.207122	
7.35181	 54.252732	
7.38508	 54.259320	
7.41835	 54.298831	
7.45161	 54.298411	
7.48488	 54.288285	
7.51815	 54.361685	
7.55141	 54.382871	
7.58468	 54.348366	
7.61794	 54.306836	
7.65121	 54.341171	
7.68448	 54.323483	
7.71774	 54.375038	
7.75101	 54.390449	
7.78427	 54.342068	
7.81754	 54.363193	
7.85081	 54.373630	
7.88407	 54.383854	
7.91734	 54.424232	
7.9506	 54.380381	
7.98387	 54.363895	
8.01714	 54.390765	
8.0504	 54.435732	
8.08367	 54.428438	
8.11694	 54.454903	
8.1502	 54.491464	
8.18347	 54.454562	
8.21673	 54.439115	
8.25	 54.469034	
8.28327	 54.426228	
8.31653	 54.442486	
8.3498	 54.489772	
8.38306	 54.465543	
8.41633	 54.464182	
8.4496	 54.483784	
8.48286	 54.497505	
8.51613	 54.463785	
8.5494	 54.502856	
8.58266	 54.490764	
8.61593	 54.487069	
8.64919	 54.475262	
8.68246	 54.529593	
8.71573	 54.563147	
8.74899	 54.565365	
8.78226	 54.572159	
8.81552	 54.573710	
8.84879	 54.588158	
8.88206	 54.591922	
8.91532	 54.562793	
8.94859	 54.547969	
8.98185	 54.605417	
9.01512	 54.583291	
9.04839	 54.615404	
9.08165	 54.658017	
9.11492	 54.669186	
9.14819	 54.695871	
9.18145	 54.797104	
9.21472	 54.848605	
9.24798	 54.828305	
9.28125	 54.857870	
9.31452	 54.965143	
9.34778	 55.005696	
9.38105	 54.927315	
9.41431	 54.916351	
9.44758	 54.833194	
9.48085	 54.866607	
9.51411	 54.815660	
9.54738	 54.768694	
9.58065	 54.771321	
9.61391	 54.801381	
9.64718	 54.774448	
9.68044	 54.796514	
9.71371	 54.794891	
9.74698	 54.747781	
9.78024	 54.792259	
9.81351	 54.784495	
9.84677	 54.756891	
9.88004	 54.806347	
9.91331	 54.815560	
9.94657	 54.859976	
9.97984	 54.919104	
10.0131	 54.917221	
10.0464	 54.871609	
10.0796	 54.907626	
10.1129	 54.915834	
10.1462	 54.862852	
10.1794	 54.976600	
10.2127	 54.898835	
10.246	 54.900171	
10.2792	 54.984386	
10.3125	 54.973204	
10.3458	 55.030824	
10.379	 55.417787	
10.4123	 55.460855	
10.4456	 62.100224	
10.4788	 61.295984	
10.5121	 76.842958	
10.5454	 77.389154	
10.5786	 77.453661	
10.6119	 77.280133	
10.6452	 77.335815	
10.6784	 77.693409	
10.7117	 77.580516	
10.745	 77.894757	
10.7782	 77.975686	
10.8115	 77.999301	
10.8448	 77.642338	
10.878	 77.626733	
10.9113	 77.669370	
10.9446	 77.682334	
10.9778	 77.594226	
11.0111	 77.479631	
11.0444	 77.385742	
11.0776	 77.403123	
11.1109	 77.448208	
11.1442	 77.502593	
11.1774	 77.522787	
11.2107	 77.661248	
11.244	 77.761188	
11.2772	 77.715844	
11.3105	 77.669659	
11.3437	 77.753016	
11.377	 77.806788	
11.4103	 77.916845	
11.4435	 77.916032	
11.4768	 77.812824	
